<?xml version="1.0" encoding="iso-8859-1"?>
<!-- Generator: Adobe Illustrator 19.1.0, SVG Export Plug-In . SVG Version: 6.00 Build 0)  -->
<svg version="1.1" id="Capa_1" xmlns="http://www.w3.org/2000/svg" xmlns:xlink="http://www.w3.org/1999/xlink" x="0px" y="0px"
	 viewBox="0 0 605.658 605.658" style="enable-background:new 0 0 605.658 605.658;" xml:space="preserve">
<g>
	<path d="M516.897,177.036c-53.432-44.633-121.635-70.232-187.12-70.232c-62.067,0-118.78,23.319-161.88,61.638l-27.571-27.575
		c1.226-4.462,1.852-9.095,1.852-13.808c0.002-28.792-23.421-52.213-52.209-52.213c-23.986,0-44.242,16.259-50.335,38.332
		C16.899,118.819,0,139.403,0,163.858c0,28.792,23.421,52.217,52.209,52.217c4.709,0,9.344-0.63,13.806-1.856l39.837,39.841
		c-12.86,29.667-19.999,62.368-19.999,96.707c0,65.015,25.325,113.311,75.275,143.553c40.563,24.555,95.725,36.49,168.648,36.49
		c51.359,0,124.845-6.201,183.274-35.742c60.586-30.63,92.609-80.528,92.609-144.299
		C605.658,286.548,574.137,224.85,516.897,177.036z M161.847,228.816c5.981-4.672,16.602-7.247,29.908-7.247
		c47.963,0,112.879,30.497,132.378,55.464c25.66,32.856,19.815,80.475-13.031,106.147c-13.422,10.492-29.496,16.035-46.477,16.035
		c-23.474,0-45.214-10.594-59.646-29.07c-13.696-17.529-33.55-49.584-44.437-82.237
		C155.927,274.055,146.808,240.569,161.847,228.816z M70.481,169.794c-4.036,0-8.096,1.203-11.605,3.658
		c-1.381,0.967-3.654,2.115-6.666,2.115c-6.452,0-11.699-5.251-11.699-11.707c0-6.452,5.247-11.701,11.699-11.701
		c0.771,0,1.55,0.077,2.317,0.23c6.552,1.317,13.316-0.677,18.107-5.331c4.786-4.649,6.976-11.363,5.849-17.941
		c-0.139-0.814-0.212-1.507-0.212-2.058c0-6.452,5.249-11.701,11.699-11.701c6.452,0,11.701,5.247,11.701,11.699
		c0,3.022-1.144,5.288-2.098,6.652c-5.645,8.053-4.69,18.992,2.259,25.947l36.317,36.321c-0.414,0.306-0.836,0.602-1.24,0.918
		c-5.192,4.056-10.31,9.421-14.473,16.457L84.81,175.724C80.893,171.807,75.705,169.794,70.481,169.794z M494.773,458.917
		c-51.306,25.939-118.046,31.384-164.996,31.384c-64.408,0-114.09-10.308-147.668-30.634
		c-37.512-22.707-55.747-58.331-55.747-108.896c0-10.91,0.877-21.614,2.541-32.059c12.888,30.942,31.001,59.538,44.158,76.376
		c22.159,28.366,55.533,44.637,91.564,44.637c26.109,0,50.806-8.516,71.421-24.624c50.441-39.423,59.418-112.544,20.011-163.001
		c-25.215-32.285-87.584-62.054-140.861-69.335c32.655-22.35,72.112-35.45,114.579-35.45c108.845,0,235.37,88.875,235.37,203.454
		C565.148,399.6,542.129,434.975,494.773,458.917z"/>
</g>
<g>
</g>
<g>
</g>
<g>
</g>
<g>
</g>
<g>
</g>
<g>
</g>
<g>
</g>
<g>
</g>
<g>
</g>
<g>
</g>
<g>
</g>
<g>
</g>
<g>
</g>
<g>
</g>
<g>
</g>
</svg>
